<svg xmlns="http://www.w3.org/2000/svg" id="Layer_2" data-name="Layer 2" viewBox="0 0 3318.12 1215.34"><defs><style>      .cls-1, .cls-2 {        stroke-width: 0px;      }      .cls-1, .cls-3 {        fill: #fbf4be;      }      .cls-2, .cls-4, .cls-5 {        fill: #e95810;      }      .cls-4 {        stroke: #ff5d24;        stroke-miterlimit: 10;        stroke-width: 10px;      }      .cls-3, .cls-5 {        font-family: BrothersOT-Regular, 'Brothers OT';        font-size: 142.54px;        letter-spacing: 0em;      }    </style></defs><g id="Layer_10" data-name="Layer 10"><g><path class="cls-1" d="M1811.33,952.43c-1.56-1.3-2.87-2.42-2.68-3.14,7.33-28.71-6.63-53.47-14.76-78.96-12.79-40.08-27.45-79.54-41.56-120.11-10.18-10.12-8.42-24.19-13.73-34.96-.41,58.12,4.11,116.57,2.44,175.12-.24,8.3-.36,16.55-1.6,24.84-2.16,14.45,2.55,27.2,10.71,38.94,7.14,10.28,6.11,16.1-4.77,20.18-27.97,10.5-56.76,18.21-85.82,24.87-3.45.79-6.93.83-10.61-2.16-5.73-5.67-2.86-10.39.23-14.44,12.38-16.25,14.71-34.88,14.67-54.84-.2-112.09.2-224.18.22-336.28,0-14.63-.9-29.27-1.6-43.89-.55-11.47-7.48-18.68-16.35-24.38-4.31-2.77-9.89-6.07-9.07-11.2.85-5.32,7.61-6.23,12.32-7.26,32.35-7.08,62.87-19.08,92.28-34.45,4.72-2.47,10.62-5.93,16.55.45,2.09,8.8-3.27,14.21-7.04,19.97-4.7,7.18-5.28,14.13-3.23,22.47,4.56,18.58,12.75,35.71,19.21,53.52,17.75,48.95,34.54,98.25,52.31,147.65.53-12.37-5.56-24.18-.16-36.73.69-58.66.52-116.82.82-174.97.09-16.82-2.66-31.51-19.03-39.87-2.72-1.39-5.76-3.97-4.73-7.39,1.23-4.09,5.44-5.42,9.22-6.32,26.05-6.19,50.47-17.04,74.82-27.91,11.76-5.25,22.56-13.02,36.99-11.09,1.81,8.85-2.62,15.34-7.05,21.08-12.97,16.79-16.38,35.55-16.15,56.62.77,71.29,1.15,142.6-.02,213.88-.73,44.62,2.41,89.27-1.73,133.88-1.6,17.3,1.33,34.76,2.07,52.15.29,6.76,3.87,11.74,8.4,16.38,10.41,10.65,8.95,16.16-4.98,22.04-15.78,6.67-32.95,8.58-48.69,15.44-6.75,2.94-13.7,5.38-20.28,8.79-5.23,2.71-10.66,4.87-17.61,2.07Z"></path><path class="cls-1" d="M1165.97,1156.77c-2.28-10.92-1.76-19.52,10-23.56,25.32-8.72,35.02-27.51,35.52-54.44,2.47-132.35,2.57-264.7,1.64-397.06-.2-27.91-12.68-48.43-33.88-64.42-8.39-6.34-16.85-12.47-23.96-20.49-4.8-5.41-2.54-7.14,2.6-8.54,1.85-.5,3.83-.84,5.73-.75,53.32,2.4,104.43-10.39,155.64-23.04,16.47-4.07,33.39-6.71,51.63-5.72,1.82,5.18-1.95,7.04-5.03,9.31-7.51,5.57-14.63,11.74-22.48,16.76-25.89,16.55-37.75,40.37-37,71.46.46,19.38.07,38.79.07,58.19,0,116.38.03,232.77-.08,349.15,0,9.76.64,18.41,13.03,21.29,29.99,7.4,59.53,10.97,89.11,13.03,35.87,2.49,68.12-10.63,98.55-28.73,9.43-5.61,18.83-10.77,30.61-12.46,2.81,1.73,4.04,3.84,3.91,7.54-.38,2.18-.86,3.33-2.06,5.15-2.94,2.67-4.59,5.14-6.13,8.88-3.25,4.32-4.11,8.66-5.44,12.77-9.49,29.34-24.17,55.38-46.22,76.81-12.07,11.73-25.5,15.84-42.88,15.85-55.13.04-108.85-11.49-163.25-17.19-30.66-3.21-61.53-4.85-92.39-5.49-5.72-.12-11.71.85-17.22-4.3Z"></path><path class="cls-1" d="M3075.79,157.66c-1.99-25.35.72-49.81,2.33-74.3,1.07-16.38-.99-31.55-12.29-44.34-2.72-3.08-5.69-7.01-2.83-11.72,1.92-3.15,5.45-3.54,8.33-2.53,29.27,10.34,58.33,2.77,87.25-1.4,35.74-5.16,71.78-5.31,107.63-8.4,11.98-1.03,22.39-5.64,32.62-11.26,5.98-3.28,11.73-6.32,18.31-.19,1.77,4.93,1.04,8.85-1.24,12.18-14.27,20.85-13.78,44.61-12.99,68.4.55,16.56-.97,33.19,1.68,49.7.63,3.94-.18,7.9-4.01,11.44-6.45-9.38-11.97-19.17-17.83-29.64-11.06-19.22-28.53-23.93-47.81-25.13-8.58-.53-11.33,3.26-11.19,12.02.68,43.6.16,87.21.33,130.81.25,64.95.11,129.91-.23,194.85-.1,18.62,4.79,34.39,17.94,47.05,5.74,5.52,2.2,8.2-2.14,10.65-4.46,2.51-9.75,3.1-14.63,3.35-33.34,1.73-66.14,6.26-97.68,18.07-1.46.55-3.03.6-5.5,0-4.96-6.49.21-10.27,2.93-13.91,15.31-20.52,23.27-42.89,22.71-69.3-.91-43.56-.1-87.16.38-130.74.14-12.56-1.78-22.68-16.08-25.55-3.09-.62-7.56-1.72-8.14-5.71-.64-4.36,3.97-5.83,6.75-7.07,16.85-7.51,18.92-21.89,18.3-38.19-1.3-34.45-1.67-68.92-.24-104.36-1.33-3.01-2.49-5.08-2.55-7.54-.13-5.85-3.07-6.12-7.67-4.56-17.18,5.79-31.17,15.34-38.68,33-2.77,6.51-5.52,13.02-8.65,20.3-1.21,2.25-2.24,3.59-3.96,5.46-1.06.93-1.53,1.25-2.78,1.89-3.77.86-6.3.23-8.37-3.36Z"></path><path class="cls-1" d="M2634.75,636.08c-2.87-6.49.06-11.63,2.93-15.99,12.44-18.92,16.16-39.73,15.6-62.15-2.99-118.94,1.48-237.88.2-356.82-.22-20.66-2.07-39.42-19.8-52.92-6.72-5.12-4.17-9.69,3.11-10.84,37.02-5.86,71.13-21.58,106.7-32.33,5.07-1.53,12.5-5.47,15.04,5.19-2.09,3.95-2.85,7.9-5.67,10-21.92,16.34-23.63,40.67-23.72,64.95-.38,105.4-.19,210.8-.08,316.2,0,5.29-1.73,11.27,4.31,15.75,1.5.32,2.11.39,3.6.71,1.45.49,2.02.73,3.46,1.25,27.57-6.54,49.03-20.21,60.9-46.92,6.39-14.38,13.27-28.53,20.04-42.73,1.07-2.25,1.63-6.07,5.1-4.79,1.16.43,1.18,4.14,1.77,7.2-2.27,36.38-3.26,71.9.37,107.44.69,6.79,2.16,13.17,4.43,19.53,4.1,11.5,2.1,16.03-9.69,19.05-26.24,6.71-52.36,13.81-78.41,21.24-33.52,9.57-66.84,19.69-98.2,35.51-3.49,1.76-7.13,3.17-12,1.47Z"></path><path class="cls-1" d="M2508.9,685c-9.2-4.31-3.6-9.23-1.01-13.05,5.96-8.78,11.46-17.66,15.83-27.48,7.96-17.92,6.7-37.08,7.06-55.63,1.17-60.94.47-121.92,1.21-182.87.6-48.66-.08-97.3-.89-145.94-.19-11.46-1.08-22.93-2.22-34.33-1.25-12.5-10-20.05-18.57-27.58-2.58-2.26-6.13-4.28-4.9-8.58,1.2-4.17,4.53-5.94,8.6-6.93,33.56-8.18,65.4-21.27,96.61-36.05,2.57-1.22,5-1.95,8.67-1.37,4.9,6.26,2.56,12.2-.54,17-14.62,22.7-16.62,47.82-15.49,74.01.84,19.36.66,38.81.06,58.19-1.24,39.89.21,79.76.11,119.64-.11,39.95.6,79.9-2.29,119.8-1.55,21.39,1.91,42.63,2.5,63.96.32,11.68,6.31,20.84,13.09,29.72,7.19,9.41,4.78,15.16-6.38,18.98-30.31,10.37-61.17,19.32-89.63,34.71-3.41,1.84-6.68,4.08-11.83,3.8Z"></path><path class="cls-2" d="M2207.88,885.48c1.67,6.13,2.63,9.34,11,3.84,31.23-20.56,64.77-36.72,99.41-50.41,14.05-5.55,28.21-10.84,42.4-16.03,7.78-2.85,14.77-6.61,20.24-15.73-6.15-1.33-11.54-2.62-16.99-3.66-16.99-3.25-26.51-13.21-26.77-30.65-.6-41.56-.47-83.14-.61-124.71-.04-13.04.34-26.09-.07-39.12-.27-8.41,3.21-12.42,10.76-15.6,25.26-10.66,50.18-22.62,72.55-38.57,41.86-29.84,64.25-72.52,68.68-123.97,3.74-43.38,3.14-87.04,2.1-130.62-.73-30.7-11.17-57.15-32.87-79.39,5.7-5.12,9.38.31,12.75,3.26,23.28,20.4,33.44,47.77,34.19,77.91,1.17,47.13,2.02,94.4-1.74,141.43-2.79,34.84-17.18,65.51-39.39,92.11-27.46,32.88-61.95,54.68-102.37,66.59-8.75,2.58-11.19,7.21-10.97,16.27,1.2,49.91,1.95,99.84,2.48,149.76.22,20.18,8.99,32.16,28.62,35.45,6.91,1.16,11.5,4.32,14.61,10.17,5.67,10.64,3.44,15.28-8.08,18.4-51.1,13.85-99.61,34.18-145.78,60.54-7.34,4.19-15.3,7.57-23.34,10.06-5.22,1.62-11.73,3.36-15.73-3.27-3.76-6.22,2.4-9.09,4.91-14.06Z"></path><path class="cls-2" d="M1928.44,914.87c17.49-15.52,38.63-23.99,59.95-31.92,29.8-11.09,60.89-19.84,88.38-35.7,41.16-23.75,69.08-59.35,70.02-110.23,1.31-70.9,4.68-141.78,1.97-212.74-1.06-27.68.66-55.46.44-83.18-.22-27.58-10.42-50.8-31.66-69.48,24.2,5.09,42.61,29.36,43.89,60.42,1.08,26.1.15,52.29.41,78.43.68,69.72.13,139.48,2.68,209.13,2.61,71.2-32.71,116.23-90.5,147.22-41.27,22.13-86.08,35.21-129.82,50.94-5.56,2-10.61,1.67-15.76-2.88Z"></path><path class="cls-2" d="M1810.36,952.95c30.02-13.36,60.3-24.98,91.87-32.68,7.61-1.86,6.91-6.11,1.63-9.14-14.44-8.29-15.43-21.61-15.37-36.34.47-133.04.79-266.08.76-399.12,0-14.14,3.58-26.42,11.11-37.92,5.61-8.55,10.96-17.28,17.07-26.5,8.08,5.32,5.9,12.39,1.54,18.25-14.22,19.11-16.73,40.81-16.6,63.98.73,128.28.93,256.57,1.24,384.85.03,13.38,1.28,25.52,13.92,33.99,7.37,4.94,5.15,16.52-3.17,19.54-27.66,10.06-55.35,20.05-83.3,29.23-7.61,2.5-17.34,5.54-20.7-8.14Z"></path><path class="cls-2" d="M2508.31,685.73c12.19-12.06,27.5-18.68,42.85-24.48,13.75-5.19,28.01-8.97,41.25-15.63,6.38-3.21,13.4-3.38,20.2-4.64,6.01-1.11,8.85-3.4,2.58-8.64-12.67-10.57-16.49-24.79-17.22-40.97-2.24-49.51.62-98.97.59-148.45-.05-72.06-.17-144.12-.61-216.18-.13-20.83.53-41,12.99-59.01,4.15-5.99,5.96-13.68,9.05-21.42,9.9,1.89,9.69,10.04,6.25,16.02-17.61,30.67-13.99,64.15-13.97,97.31.05,110.96-.02,221.91-.27,332.87-.03,14.08,3.04,26.62,12.29,37.29,1.28,1.48,2.48,3.06,3.51,4.73,8.42,13.66,7.53,17.53-7.63,21.24-30.58,7.48-59.13,21.18-89.36,29.61-7.19,2-14.42,7-22.49.35Z"></path><path class="cls-2" d="M2878.53,536.03c4.08-1.89,7.87.02,11.01,1.85,36.98,21.68,108.84-2.46,136.37-42.87,14.89-21.86,21.75-43.79,22.23-70.39,1.66-92.21-2.85-184.38-.56-276.57.58-23.38-5.46-44.57-19.09-64.38,5.62-2.99,8.07,1.59,11.12,5.08,17.43,19.96,24.69,43.51,23.59,70-1.91,46.35-1.62,92.73-1.42,139.1.21,47.94-.3,95.88.06,143.81.26,34.96-16.12,61.6-40.38,83.34-19.16,17.16-42.63,27.26-67.52,33.03-28.71,6.66-53.37-2.63-75.42-22Z"></path><path class="cls-2" d="M1319.74,1084.56c-2.02.75-4.73.72-7.39,1.08-7.24.98-9.9-1.08-9.87-9.57.32-86.37.12-172.74.02-259.11-.06-51.9-.27-103.81-.23-155.71,0-10.29.02-20.69,1.43-30.84,3.22-23.15,20.23-36.35,36.6-49.39,9.66-7.7,20.58-13.74,31.3-21.31,5.74,5.26-.06,7.68-3.33,10.72-13.42,12.46-27.85,23.63-38.56,39.19-10.16,14.75-13.54,30.49-13.76,48.04-1.02,80.87-1.04,161.73.35,242.6.97,56.27.35,112.56.57,168.84.02,4.98-1.6,10.38,2.86,15.44Z"></path><path class="cls-2" d="M3120.98,507.69c19.55-11.8,40.69-17.36,62.78-19.67,19.51-2.04,39-4.24,60.45-6.59-18.98-11.77-25.28-28.09-25.2-48.07.24-55-.11-110,.26-165,.39-58.09-.07-116.17-1.63-174.24-.11-4.24.52-7,5.13-7.33,18.36-1.3,36.4-1.11,51.89,11.36,4.73,3.81,8.31,8.27,8.08,15.8-11.5-6.91-24.58-9.28-37.45-11.86-5.56-1.12-12.64-1.47-12.52,7.67.58,43.96-3.46,87.92-.08,131.87.06.78.34,1.54.59,3.3.75,6.52,3.59,11.8,1.83,18.45-6.47,20.83-2.87,41.31-2.89,61.6-.04,36.78.44,73.56.4,110.35-.02,15.99,3.09,30.67,14.14,42.66,3.46,3.75,3.35,8.66,4.82,13.09,1.88,5.68-1.22,7.69-5.44,7.83-36.25,1.21-71.83,8.46-107.8,12.11-5.58.57-12.27,3.44-17.36-3.31Z"></path><path class="cls-2" d="M1538.6,1039.89c22.84-10.58,46.96-18.88,72.23-27.43,9.25-2.53,17.51-4.31,25.58-6.74,3.04-.91,8.68-.58,5.91-7.98,1.12-.79,2.58-.66,5.05-1.01,13.95-.83,25.99-5.49,38.24-8.93,20.49-5.76,40.83-12.11,61.27-18.06,6.82-1.99,8.57-5.23,2.84-10.4-13.19-11.91-15.29-27.02-14.63-44.17,2.05-53.43,1.74-106.87-.81-160.31-.89-18.75-.14-37.59,1.47-56.69,8.33,15.63,11.87,32.67,16.36,50.29-4.08,5.18-2.92,10.63-2.9,15.62.15,55.49.78,110.99.52,166.48-.07,14.61,6.39,25.54,13.67,36.91,8.01,12.52,7.28,13.89-6.86,17.8-27.24,7.54-55.27,12.87-81.55,22.99-18.78,7.23-38.8,10.17-56.83,18.77-20.03,9.55-41.3,13-62.59,16.86-5.62,1.02-11.68,1.99-16.98-3.99Z"></path><path class="cls-2" d="M1535.2,1070.21c1.47-1.68,2.42-2.95,4.24-5.03,3.21-7.64,7.87-8.65,14.69-5.84-17.79,31.48-26.61,67.94-49.9,96.46-5.62,6.89-10.89,14.2-16.38,21.16-10.4,13.19-25.63,17.36-41.63,16.6-50.97-2.42-101.56-9-152.22-14.99-31.11-3.68-62.39-5.74-93.72-6.8-8.48-.29-16.95-1.46-25.39-2.44-6.56-.77-11.1-3.66-9.72-12.45,73.05-.99,145.08,8.84,217.12,18.36,22.65,2.99,45.43,2.92,68.17,3.51,11.4.29,20.65-6.06,28.51-14,22.39-22.61,37.04-50.01,46.55-80.45,1.18-3.78,1.33-7.93,6.9-9.52,1.02-1.85,1.48-3.07,2.78-4.56Z"></path><path class="cls-2" d="M1640.6,994.71c-17.17-11.75-19.91-31.95-22.86-50.95-8.67-55.93-18.57-111.65-25.8-167.84-3.67-28.55-11.94-56.45-16.89-84.86-4.16-23.82-9.68-47.27-15.54-70.64-4.27-17.04-4.08-34.62-7.73-51.65-.98-4.58,1.53-7.61,3.7-10.79,7.12-10.4,14.72-20.42,24.32-29.78,5.8,3.98,2.34,8.64-.23,11.99-16.23,21.2-14.07,43.86-8.7,68.48,13.72,62.94,26.35,126.16,38,189.53,8,43.54,13.47,87.57,20.43,131.31,2.23,14.02,5.34,27.93,8.59,41.75,1.74,7.39,2.98,14.7,2.7,23.43Z"></path><path class="cls-2" d="M2738.72,520.68c-12.86,7.11-14.14,6.57-14.12-7.03.19-108.94.51-217.87.78-326.81.01-4.36.08-8.73-.23-13.07-1.97-27.51,9.31-48.01,32.3-62.71,2.45,11.15-5.95,18.24-10.16,26.69-5.68,11.39-8.09,22.95-8.42,35.35-1.98,74.48-.7,148.95-.13,223.43.27,34.86-.23,69.73-.24,104.6,0,5.51.68,11.02,1.93,17.39.88.86.52.82.48.64-.86-.1-1.5.3-2.2,1.54Z"></path><path class="cls-2" d="M2651.3,640.56c29.67-8.95,59.27-18.14,88.92-27.19,19.28-5.89,38.48-12.21,58.02-16.9,4.64-2.03,9.38-3.81,14.24-5.25,6.19-1.83,12.5-1.92,18.46-.63,5.87-.65,11.79-1.08,17.77-1.2,8.91-.17,8.92-3.9,4.87-10.22-16.61-25.91-21.37-54.69-20.44-85.13.63-20.58-1.04-41.09-5.39-60.71-10.33,32.03-6.62,64.07-4.75,95.96.66,11.33.05,23.42,6.73,33.24,5.05,7.42,2.25,9-4.61,10.55-39.94,9.06-79.14,20.97-118.44,32.54-25.31,7.45-48.91,18.99-72.65,30.74,4.97,6.51,11.19,6.02,17.27,4.19Z"></path><path class="cls-2" d="M1359.77,1065.26c33.22-12.74,67.63-18.65,103.07-18.28,3.97.04,9.89,2.75,11.56-1.86,1.83-5.06-4.44-6.65-7.86-8.44-10.48-5.51-11.99-15.17-11.1-25.28,2.59-29.55,8.23-58.65,13.69-87.75,1.23-6.58,4.71-9.89,11.6-10.94,15.21-2.33,30.37-5.18,45.38-8.63,14.78-3.4,15.2-3.42,15.31,13.59-16.78,3.42-33.15,6.06-49.48,8.96-4.64.82-9.67,2.45-10.71,7.82-4.88,25.15-10.01,50.28-13.72,75.62-1.71,11.71,3.16,22.48,11.31,31.31,4.46,4.83,7.58,10.74,5.12,17.26-2.8,7.41-10.01,4.99-15.31,4.59-33.78-2.52-66.99,5.63-100.63,5.35-3.06-.03-6.2,1.37-8.23-3.33Z"></path><path class="cls-2" d="M1819.11,676.61c2.52,14.65,4.31,28.76,5.76,42.91.28,2.73,2.07,7.17-2.33,7.85-3.81.59-6.07-2.87-7.14-6.48-18.85-63.49-41.71-125.49-65.88-187.01-3.44-8.76-5.7-18.02-8.26-27.12-1.93-6.85,1.56-12.26,5.17-17.5,3.78-5.48,7.65-10.89,11.88-17.05,6.58,3.76,2.71,8.82.34,12.76-6.08,10.13-4.75,19.7-1.36,30.5,12.72,40.58,31.45,78.8,43.87,119.55,4.25,13.96,11.28,27.4,17.96,41.58Z"></path><path class="cls-4" d="M2404.39,302.46c-13.75-7.82-27.65-8.46-41.98-1.81-6.18,2.87-9.74,7.32-9.95,14.6-1.73,62.22-3.64,124.43-1.72,187.78-14.22,8.04-15.57,7.23-15.5-8.49.28-63.7.69-127.41.73-191.11,0-10.69,2.55-17.53,14.42-18.05,6.11-.27,12.15-2.21,18.24-3.27,17.59-3.08,27.68,2.47,35.76,20.36Z"></path><path class="cls-1" d="M2154.84,580.18c-.55-41.91-2.14-83.83-.1-125.75.52-10.77-.43-21.45-2.78-31.88-4.92-21.85-13.09-41.61-35.56-52-15.06-11.14-31.33-17.66-48.62-12.47-45.98,13.79-91.58,28.96-137.23,43.89-8.57,2.8-9.93,8.65-2.82,13.5,16.09,10.97,18.47,26.68,18.36,44.6-.75,124-1.2,248.01-1.54,372.02-.07,25-2.6,49-18.39,69.64-2.95,3.86-5.8,9.38,2.79,12.29,6.41.4,10.61-2.56,14.89-5.27,5.27-3.33,10.53-6.68,16.29-9.08,30.81-12.88,62.26-24.05,93.18-36.61,11.83-4.81,24.11-9.16,34.53-16.84,40.34-29.75,65.33-68.52,64.36-121.07-.89-48.37,3.28-96.61,2.64-144.97ZM2030.93,787.54c-8.18,1.09-7.58-4.76-7.52-9.11,1.4-101.71,0-203.43.67-305.14.1-15.64,4.46-22.04,19.48-24.6,10.22-1.74,21.94-8.62,31.4,4.59,4.5,23.44,2.41,46.04,2.56,68.5.43,62.9-1.68,125.88.77,188.68,1.51,38.57-13.29,62.55-47.36,77.09Z"></path><path class="cls-2" d="M2075.78,453.51c-15.25-6.06-29.51-1.19-43.53,4.23-5.68,2.2-3.69,8.12-3.65,12.63.41,45.99,1.2,91.97,1.35,137.96.19,57.88.25,115.76-1.79,173.62-.05,1.48.64,2.99,1.64,5.1-1.14,6.91-6.14,8.56-11.21,7.09-5.59-1.62-3.17-7.39-3.13-11.34.51-62.17,1.68-124.35,1.69-186.52.01-45.16-1.19-90.32-2.49-135.46-.24-8.3,1.74-12.15,9.64-14.31,9.28-2.53,17.96-7.49,27.27-9.77,13.55-3.32,21.39,2.4,24.22,16.78Z"></path><g><path class="cls-1" d="M2487.51,259.12c-6.35-15.68-13.45-31.21-30.62-39.5-20.76-19.02-43.98-21.75-68.88-14.08-15.07,4.65-29.91,10.64-44.95,14.83-38.45,10.72-75.37,25.41-112.36,40.16-17.57,7.01-27.58,19.61-28.4,39.48,4.69,2.91,8.89,3.41,14.13,2.3,5.62-2.34,8.84-6.36,12.52-9.85,7.02-6.66,13.51-4.81,15.91,4.82,1.23,4.96,1.46,10.17,4.2,15.78.25,60.51,1.3,119.95.42,179.36-1.1,75.2,1.49,150.4-1.18,225.64-1.03,29.04.24,58.36-1,87.54-.73,17.17-6.86,32-17.61,45.42-8.29,10.34-16.62,20.95-21.24,34.63-.13,8.01,3.95,8.97,9.29,7.53,5.28-1.42,9.91-4.47,14.64-7.18,25.37-14.5,51.17-28,78.23-39.01,19.42-7.9,39.14-15.09,58.11-24.12,5.67-2.7,11.8-6.72,11.45-13.71-.35-6.91-8.48-5.08-12.65-8.01-.61-.42-1.5-.38-2.23-.64-16.99-6.18-24.57-17-24.61-35.72-.1-49.18.3-98.36-.27-147.53-.14-12.36,4.42-18.32,15.3-22.94,21.41-9.09,42.86-19.15,61.95-32.2,49.43-33.81,74.61-83.04,75.97-143.58.75-33.22,4.22-66.44,2.07-99.69-1.3-20.08-.48-40.68-8.2-59.73ZM2412.44,432.27c-.5,33.71-21.02,52.9-48.61,66.2-3.83,1.85-7.75,3.52-12.36,5.52-6.19-2.52-6.66-7.71-6.56-12.93.81-41.81-2.26-83.67,1.79-125.46,1.37-14.13.57-28.43.35-42.64-.22-13.41,4.54-23.58,17.26-27.59,13.37-4.22,27.26-7.28,38.98,6.87,6.16,9,8.73,18.03,8.79,27.78.22,34.09.87,68.18.37,102.26Z"></path><path class="cls-1" d="M3052.32,430.83c-1.4-40.68.38-81.45-.13-122.19-.69-55.04.23-110.11-.37-165.16-.25-22.97-4.61-44.96-24.07-61.22-10.18-12.47-22.27-20.48-36.79-24.89-21.33-6.47-42.11-2.62-62.88,2.86-45.83,12.09-82.68,59.93-82.73,107.74-.1,99.79-.09,199.58-.13,299.36-.01,26.48,10.24,47.83,30.83,64.73.49,1.44,1.05,1.91,2.04,2.33.12.31.41.9,1.26,1.49,11.89,5.06,21.56,12.66,34.12,13.66,35.66,2.84,68.02-6.41,95.05-30,26.26-22.91,45.13-50.28,43.81-88.73ZM2979.04,163.56c-4.26,87.45-3.57,174.97-3.46,262.48.03,28.03-7.39,36.31-35.96,38.52-12.04-.95-14.31-9.53-15.62-18.36-.98-6.63-.44-13.43-.44-20.16-.01-38.4-1.17-76.84.3-115.17,1.72-45.07,1.81-90.13,2.23-135.2.14-15.4,6.21-27.89,20.46-34.44,10.44-4.8,20.98-5.3,30.53,4.87,2.38,6.37,2.25,11.92,1.97,17.47Z"></path></g><path class="cls-2" d="M2978.1,146.28c-3.98-.44-7.6-1.95-11.37-2.68-20.55-4.03-34.42,6.54-35.72,27.87-.89,14.62-.74,29.31-.89,43.97-.74,72.91-1.55,145.83-2.02,218.74-.07,10.43-1.41,21.91,10.12,29.52-1.61,6.98-5.55,4.58-9.67,2.95-8.02-3.18-12.64-9.15-13.43-17.66-.61-6.67-.08-13.45,0-20.19.44-34.86,2.64-69.8.95-104.55-2.58-53.08-.02-106.04-.18-159.05-.06-19.31,10.62-29.84,25.66-37.18,14.63-7.14,31.4,1.27,36.53,18.26Z"></path><path class="cls-4" d="M1497.6,837.17c-16.16,8.08-18.89,6.52-16.2-11.01,4.9-31.93,10.79-63.71,16.47-95.51,2.51-14.05,1.88-28.75,9.82-42.36,2.64,14.38,5.28,28.75,7.85,44.15-4.43,32.48-10.16,63.73-14.01,95.27-.4,3.24-1.32,6.13-3.93,9.46Z"></path><path class="cls-1" d="M1641.78,996.66c-.2-.15-.85-.91-1.16-1.84-2.95-10.48-9.85-17.82-12.32-27.75-12.73-51.16-19.29-103.49-26.24-155.56-6.61-49.55-18.82-97.8-27.14-146.9-4.68-27.62-13.31-54.4-16.54-82.5-1.52-13.17,1.03-23.02,8.99-32.65,5.43-6.57,11.66-12.84,12.77-22.76-6-3.49-11.08-.82-16.26.42-38.31,9.18-75.8,22.58-115.81,22.95-6.18.06-15.49-3.55-17.84,3.55-2.01,6.1,6.59,10.57,11.42,14.58,8.46,7.02,13.33,15.24,12.07,26.58-2.06,18.49-3.4,37.11-6.48,55.41-17.21,102.14-34.72,204.22-52.43,306.26-6.57,37.86-13.17,75.89-40.53,105.48-.71.77-.87,2.08-1.27,3.1,2.53,2.03,4.48.16,7.39-.27,36.27-4.45,70.92-15.24,107.18-13.75,3.77.16,8.09-1.24,9.16-5.82,1.07-4.59-2.54-7.01-5.61-9.46-8.27-6.58-12.25-15.38-11.15-25.92,2.82-27.09,7.64-53.87,13.09-80.53,1.48-7.26,5.65-10.29,12.35-12.1,11.98-3.25,24.57-3.36,36.3-7.22,9.46-3.11,15.45-.7,19.25,9.36,5.2,24.44,6.2,48.31,7.08,72.21.34,9.22-.37,17.8-6.18,25.6-5.42,7.27-9.94,15.25-15.04,23.22,4.74,1.8,7.72-1.05,11.97-.99,6.96,1.71,12.33-1.05,17.74-2.98,18.26-6.5,36.4-13.36,55.98-18.74,2.05-.71,3.22-1.14,5.28-1.88,7.31-2.53,14.34-2.98,20.26-6.41,4.58-2.66,11.06-5.65,3.74-12.72ZM1518.59,834.88c-6.62.64-13.18,1.95-20.77,3.11,1.46-35.05,4.31-70.18,16.67-104.11,5.04,29.27,9.33,58.84,13.64,88.4,1.12,7.65-1.69,11.85-9.54,12.61Z"></path><text class="cls-5" transform="translate(1096.53 535.32) scale(.97 1)"><tspan x="0" y="0">THE</tspan></text><text class="cls-3" transform="translate(1093.04 534.26) scale(.97 1)"><tspan x="0" y="0">THE</tspan></text></g></g><g id="Layer_11" data-name="Layer 11"><path class="cls-2" d="M832.54,979.53c9.07,4.04,18.11,8.16,27.22,12.11,23.41,10.16,46.96,19.93,70.21,30.54,6.8,3.1,9.98,1.38,14.23-4.98,17.33-25.95,34.5-52.17,53.48-76.57,8.76-11.27,20.74-20.36,32.7-27.32,22.12-12.86,42.91-3.23,49.74,23.68,5.51,21.74,8.14,44.52,10.77,67.02,2.2,18.81,1.28,18.31-14.88,21.35-37.96,7.12-75.83,14.87-113.71,22.47-2.93.59-5.74,2-8.43,5.46,5.36-.65,10.76-1.08,16.09-1.97,50.02-8.36,99.88-18.23,150.11-24.5,19.72-2.46,40.25,2.89,60.37,5.17,3.94.45,7.96,2.64,11.46,4.93,16.52,10.83,17.56,26.25,2.72,39.77-16.57,15.09-36.99,17.77-56.98,21.65-6.44,1.25-12.95,2.09-19.45,2.89-11.24,1.38-21.98,1.12-22.46,20.1-.31,12.04-11.16,18.69-24.01,18.71-15.83.02-31.66-.72-47.49-1.11-2.6-.06-5.2,0-7.8,0-.55,1.15-1.09,2.3-1.64,3.45,5.01,3.71,9.63,8.7,15.13,10.81,7.94,3.05,12.18,9.18,10.53,17.13-1.04,5.02-6.65,11.22-11.16,12.43-7.79,2.08-12.34-4.01-13.89-13.03-1.84-10.74-25.24-34.58-34.92-36.05-87.33-13.25-174.7-26.1-261.98-39.76-67.5-10.56-135.02-21.11-202.22-33.72-25.76-4.83-49.89,1.69-74.67,4.84-4.66.59-9.27,1.71-15.46,2.88,15.67,27.51,19.3,55.41,6.42,84.13-7.25,16.18-18.67,27.57-34.48,32.72-30.39,9.9-59.8-9.86-68.86-46.21-10.8-43.38,9.73-77.03,55.11-92.34-5.93,0-12.5-1.84-17.65.41-8.83,3.87-17.53,9.23-24.95,15.85-22.59,20.17-44.38,41.45-66.84,61.81-5.48,4.96-7.47,9.03-5.76,17.37,7.02,34.27-13.61,68.47-43.22,73.09-31.75,4.95-60.07-21.83-61.6-58.25-1.48-35.41,15.09-59.72,46.16-67.65,3.86-.99,7.77-1.72,11.5-3.31-18.33-5.88-34.27.15-48.21,13.58-4.86,4.68-9.68,10.57-12.11,17.04-4.12,11-10.4,12.25-19.71,10.48-27.48-5.21-55.14-9.28-82.59-14.66-8.32-1.63-16.42-5.59-24.18-9.56-2.95-1.51-6.57-6.18-6.4-9.17.16-2.96,4.29-7.02,7.4-8.18,19.57-7.27,39.33-13.88,59.04-20.66,2.94-1.01,5.96-1.78,10.62-3.17-2.68-19.87-4.8-39.68-8.12-59.23-6.1-35.85-.31-27.7-30.45-36.12-10.98-3.06-22.05-5.7-33.72-8.69-5.51,14.95-10.84,29.39-16.17,43.84-1.14-.23-2.27-.47-3.41-.7,1.1-11.01,1.44-22.2,3.5-32.98,2.25-11.73-.1-19.68-9.18-26.75-4.32-3.36-9.06-11.63-8.17-16.38,1.1-5.81,7.3-13.51,12.37-14.71,15.55-3.68,20.97-14.9,24.23-30.44,4.24-20.25,10-40.1,14.62-60.26.75-3.27.08-8.87-1.9-10.65-6.9-6.19-10.57-13-8.02-23.03,2.6-10.24,8.93-15.08,18.03-16.19,1.69-.21,3.35-.8,5.59-1.36,15.67-78.53,26.95-159.1,72.77-225.07,1.53.34,3.07.68,4.6,1.02-1.18,14.57-1.57,29.28-3.67,43.68-7.88,54.09-25.78,104.72-43.62,155.34-1.64,4.66-3.3,9.32-4.87,14.01-4.62,13.76-.52,22.08,12.64,24.09,2.39.37,6.21-2.49,7.69-5.07,2.96-5.13,4.75-11.1,7.02-16.72,17.35-42.82,55.09-48.63,87.44-38.94,9.1,2.72,18.71,7.32,25.68,14.15,15.41,15.11,31.09,15.45,48.58,6.57,33.84-17.18,68.08-33.41,101.63-51.26,119.96-63.82,239.7-128.15,359.52-192.29,34.45-18.44,69.02-36.61,103.33-55.38,53.82-29.43,144.66,2.16,179.57,45.65,17.8,22.17,28.59,47.33,22.22,78.24-3.48,16.85-12.72,29.75-23.9,41.04-16.38,16.57-35.67,27.45-56.34,35.43-45.84,17.69-91.72,35.28-137.58,52.92-3.86,1.49-7.69,3.07-12.27,4.91,5.16,40.88,10.25,81.22,15.25,120.86,21.18,2.33,41.53,3.23,61.39,7.17,15.42,3.06,30.44,9.29,45.23,15.36,7.29,2.99,14.05,8.22,20.38,13.46,33.43,27.69,31.22,63.68-7.03,81.6-26.77,12.54-55.75,19.17-83.79,28.26-11.39,3.69-22.91,6.88-34.37,10.3,0,.87,0,1.74.01,2.61ZM240.19,795.25c.55-1.66,1.11-3.31,1.66-4.97-17.26-12.11-38.03-14.33-57.35-20.62.25-.95.51-1.91.76-2.86,18.24,4.72,36.48,9.44,58.47,15.13-3.32-11.06-3.89-21.73-8.88-27.93-13.98-17.36-33.94-18.39-53.5-21.86,1.26,9.26,2.24,16.43,3.33,24.41q-26.3-32.39-35.85-22.58c12.28,8.09,18.73,21.37,19.82,40.34,2.04,35.47-6.44,68.08-22.13,98.37-4.21,8.12-10.4,15.48-16.96,21.43-10.39,9.43-18.93,6.4-24.66-7.35-1.95-4.67-3.49-9.55-6.07-16.7-4.61,27.2,3.89,46.4,19.27,62.59,18.57,19.53,41.2,28.6,66.11,32.04,5.46.75,12.69,2.09,15.57,6.24,7.4,10.68,12.81,23.09,19.01,34.8-8.94-4.53-9.57-21.53-24.77-14.42,2.63,14.14,5.27,28.29,8.12,43.6,15.53-3.95,30.22-7.59,44.83-11.55,1.71-.46,3.8-2.39,4.4-4.18,3.4-10.26,6.39-20.68,8.63-28.1-19.24-11.77-36.53-22.59-54.05-32.91-4.54-2.67-9.86-5.46-14.75-5.29-22.56.76-43.04-6.14-61.18-20.58-7.7-6.13-13.66-14.99-20.41-22.61,13.16,1.3,17.88.23,27.68-7.57,13.52-10.75,21.09-26.14,26.74-43.01,5.17-15.42,10.25-30.87,15.49-46.65,6.61,2.17,12.2,3.99,17.78,5.85,5.93,1.98,11.82,4.16,17.79,5.98,5.13,1.56,10.36,2.73,15.55,4.08l1.05-4.61c-17.07-6.27-34.14-12.54-51.22-18.81.31-1.08.62-2.16.92-3.24,18.53,5.53,37.07,11.05,55.6,16.58.41-1.43.82-2.87,1.22-4.3-16.8-5.9-33.59-11.8-50.39-17.69.24-1.04.48-2.09.73-3.13,17.25,4.48,34.49,8.96,51.74,13.44.37-1.48.74-2.95,1.11-4.43-9.78-3.21-19.53-6.52-29.33-9.61-9.72-3.05-19.5-5.88-29.26-8.8.25-1.01.51-2.01.76-3.02,18.87,4.83,37.73,9.66,56.6,14.49ZM622.83,808.42c1.86,1.53,3.36,3.06,5.09,4.15,23.73,14.82,47.32,29.96,71.41,43.99,4.35,2.53,11.44,2.1,16.05-.13,2.37-1.15,3.12-9.37,2.77-14.23-1.74-24.22-4.03-48.39-6.24-72.57-.86-9.37-2.03-18.7-3.07-28.18-11.29,1.33-17.37,7.48-21.62,17.38-6.33,14.72-13.43,29.03-20.2,43.51-.89-.48-1.79-.96-2.68-1.44,6.52-16.3,13.05-32.61,20.29-50.71-7.82,2.67-13.59,3.97-18.84,6.6-6.72,3.36-14.73,6.19-19.14,12.1-8.94,12-15.83,25.93-23.83,39.52ZM261.93,826.87c57.13,18.94,113.97,37.79,170.81,56.64.19-.69.38-1.39.58-2.08-57-20.67-114.01-41.35-171.01-62.02l1.08-3.83c72.33,24.77,144.66,49.55,216.99,74.32.43-1.54.85-3.08,1.28-4.63-69.03-25.16-138.07-50.31-207.1-75.47.15-.64.31-1.28.46-1.92,18.11,5.05,36.21,10.11,54.32,15.16l.89-3.37c-22.09-7.81-44.18-15.62-66.27-23.43.21-.78.42-1.56.63-2.35,22.24,6.67,44.47,13.33,66.71,20-4.76-15.07-18.53-11.53-29.07-20.17,12.06,2.88,21.63,5.16,31.19,7.44.69-.89,1.38-1.78,2.07-2.66-2.5-3.27-4.44-8.26-7.58-9.55-20.24-8.31-40.75-15.82-62.11-23.95v15.16c-4.78-8.72-8.58-15.67-12.5-22.81,1.64,27.77,3.22,54.4,4.66,78.73.43-1.01,2.02-4.69,3.98-9.22ZM892.95,436.47c-23.31-1.63-44.17,7.1-64.32,18.2-180.52,99.37-360.65,199.69-545.28,289.33-1.69.82-3.12,2.28-4.68,3.44,7.46-.51,14.41-2.46,20.88-5.62,161.7-78.94,321.02-163.55,478.93-251.59,37.04-20.65,72.56-46.04,114.48-53.76ZM864.06,829.15c-.05-1.17-.1-2.34-.16-3.51-17.28,2.46-35.24,2.31-51.72,7.78-141.79,47.07-283.31,95.14-424.9,143-2.66.9-5.06,2.8-7.58,4.24.26,1.02.51,2.04.77,3.06,4.11-.69,8.37-.8,12.3-2.14,104.32-35.44,208.48-71.47,312.95-106.34,52.26-17.45,103.24-40.7,158.33-46.08ZM585.65,821.33c-12.77-6.03-24.91-10.55-35.98-17.28-18.32-11.13-36.35-13.3-56.28-5.47-9.86,3.88-15.3,9.13-15.89,23.3,10.76,1.82,22.15,6.72,32.54,4.81,15.43-2.84,26.51.17,36.09,14.23,8.07,11.84,20.63,10.78,28.04-1.05,3.53-5.64,7.01-11.33,11.47-18.54ZM728.56,732.45c3.3,39.15,6.53,77.4,9.79,116.07,10.34.73,13.81-5.49,15.39-14.21,1.37-7.55,1.74-15.59,4.38-22.55,11.66-30.76,5.78-58.72-10.37-85.9-5.44,1.87-11.6,3.99-19.19,6.6ZM589.73,857.11c10.44,9.97,20.11,19.4,30.01,28.49,1.63,1.5,4.62,2.72,6.47,2.11,18.31-6.09,36.51-12.6,57.13-19.83-19.51-8.9-36.3-16.63-53.14-24.24q-26.11-11.81-40.47,13.47ZM49.67,895.53c14.29-5.6,26.97-10.41,39.49-15.67,1.47-.62,2.71-3.58,3.06-5.67,2.3-13.63,4.67-27.26,6.32-41,1-8.37-3.34-10.55-10.3-9.24-4.49.84-9.55,1.55-13.69.04-5.34-1.94-7.75-.76-9.1,4.96-5,21.21-10.05,42.41-15.78,66.58ZM799.56,706.78c-1.91,1.53-2.83,1.86-2.95,2.42-7.58,35.43-22.23,70.68-2.31,106.87.71,1.29.89,2.92,1.45,4.32,1.92,4.73,2.59,10.52,9.84,8.45,6.62-1.88,9.36-5.46,8.39-13.03-1.62-12.6-2.84-25.27-4.53-37.86-3.15-23.47-6.51-46.9-9.9-71.17ZM188.36,1038.66c-2.6-16.04-4.9-31.14-7.66-46.14-.35-1.92-2.94-4.36-4.77-4.71-6.94-1.32-14-1.89-22.07-2.86v63.44c12.45-3.51,22.96-6.47,34.5-9.72ZM528.27,785.58c22.2,10.64,41.85,20.06,61.51,29.49,3.27-4.68,5.76-8.26,8.86-12.69-19.82-12.76-39-25.1-55.42-35.67-5.5,4.05-9.08,6.69-13.88,10.23,6.92-.87,12.54-1.57,18.16-2.28.13.92.27,1.85.4,2.77-5.65,2.35-11.3,4.69-19.64,8.15ZM806.3,984.74c2.45,2.91,2.81,3.73,3.37,3.95,45.26,18.17,90.52,36.35,135.86,54.26,2.92,1.15,6.51.15,12.33.15-3.66-2.63-4.69-3.68-5.9-4.2-42-18.08-83.95-36.35-126.14-53.86-5.24-2.17-11.81-.3-19.52-.3ZM704.93,568.29c-7.79,10.57,6.61,164.08,17.12,189.26-5.54-65.29-8.23-127.64-17.12-189.26ZM54.72,1080.8c64.91-12.21,129.02-28.18,192.41-47.57-.29-1.39-.59-2.78-.88-4.16-63.84,17.24-127.69,34.49-191.53,51.73ZM112.55,984.38c-.84.27-1.68.55-2.52.82,3.28,23.57,6.55,47.15,9.95,71.57,4.8-1.44,9.21-1.77,12.5-4.09,2.36-1.67,5.25-6.96,4.47-8.98-7.72-19.97-16.16-39.6-24.4-59.33ZM562.29,1018.03c.37,1.18.73,2.36,1.1,3.54,75.74-24.82,151.48-49.65,227.22-74.47-.27-1.03-.54-2.06-.8-3.08-75.84,24.67-151.68,49.34-227.52,74.01ZM1015.12,932.35c-30.81,24.62-46.94,62.01-68.99,95.76,8.32,2.46,14.8,4.37,21.29,6.28.2-.57.4-1.14.61-1.7-3.61-2.61-7.21-5.22-12.31-8.91,20.06-30.88,39.74-61.15,59.41-91.43ZM430.11,708.31c-.97-.6-1.94-1.2-2.92-1.81-20.63,35.87-37.04,74.03-49.63,114.28.95.52,1.9,1.04,2.85,1.56,16.57-38.01,33.14-76.02,49.7-114.03ZM610.49,826.44c26.06,11.74,51.02,23,75.99,34.25.34-.84.68-1.68,1.02-2.51-23.27-14.49-46.55-28.98-70.25-43.74-2.37,4.2-4.15,7.37-6.76,12ZM341.43,1124.38c4.81-33.68,18.8-57.08,52.6-59.66-7.79-8.86-16.15-6.27-24.07-2.99-21.18,8.76-33.28,34.82-28.53,62.65ZM620.3,768.28c-17.11,2.72-31.55,5.02-46,7.33-.16.84-.32,1.69-.47,2.53,9.37,5.88,18.74,11.76,28.98,18.19,5.63-9.02,10.82-17.35,17.49-28.05ZM354.6,1044.29c1.81-.76,3.62-1.53,5.43-2.29-9.27-25.58-18.53-51.15-28.69-79.19-2.88,4.53-5.62,7.2-5.18,8.37,9.26,24.47,18.89,48.78,28.44,73.12ZM230.9,1120.59c1.27.5,2.53.99,3.8,1.49,11.49-41.57,22.98-83.13,34.46-124.7-1.49-.51-2.98-1.02-4.47-1.52-11.26,41.58-22.53,83.15-33.79,124.73ZM251.02,1119.52c.8,1.17,1.59,2.34,2.39,3.51,29.23-24.83,58.47-49.65,87.7-74.48-.84-1.23-1.67-2.46-2.51-3.68-29.19,24.88-58.39,49.76-87.58,74.65ZM468.49,830.75c29.03,10.01,55.55,19.15,82.06,28.3-8.69-11.19-71.58-33-82.06-28.3ZM774.95,753.96c.76.16,1.52.32,2.27.49,3.2-14.51,6.4-29.02,9.95-45.12-7.4,3.09-13.26,5.54-19.89,8.31,2.68,12.7,5.17,24.51,7.66,36.32ZM118.81,978.68c7.21,14.55,13.89,28.01,21.5,43.36,4.41-30.77-.37-40.32-21.5-43.36ZM641.3,764.23c-.72-.85-1.43-1.7-2.15-2.55-15.11,6.6-19.82,24.46-30.44,37.02,2.88,2.24,5.02,3.9,7.51,5.83,8.6-13.82,16.84-27.06,25.08-40.31ZM762.26,731c.8-.24,1.6-.49,2.4-.73-4.89-15.06-9.37-30.3-14.82-45.1-3.49-9.49-2.54-14.66,7-17.91,10.67-3.64,20.85-9.07,31.24-13.72-.28-.83-.56-1.67-.83-2.5-15.08,6.08-30.16,12.16-45.72,18.43,6.46,19.17,13.6,40.35,20.73,61.53ZM340.92,772.48c8.19,11.77,16.51,22.43,30.17,22.94,2.51.09,5.1-2.43,7.65-3.74-1.7-2.06-3.06-5.1-5.16-6.01-10.78-4.7-21.75-8.84-32.66-13.18ZM488.56,758.82c-1.24-.58-2.47-1.15-3.71-1.73-9.82,26.17-19.64,52.33-29.46,78.5,1.14.53,2.28,1.07,3.42,1.6,9.92-26.12,19.83-52.24,29.75-78.37ZM916.31,599.83c-.36-1.05-.72-2.1-1.09-3.15-30.77,13.43-61.54,26.86-92.32,40.29.36,1.03.71,2.06,1.07,3.09,30.78-13.41,61.56-26.83,92.34-40.24ZM855.86,1029.4c.44-.94.88-1.88,1.33-2.83-29.88-9.96-59.76-19.93-89.65-29.82-.89-.29-2.01.28-5.96.93,33.38,11.22,63.84,21.47,94.29,31.71ZM344.37,943.41c-1.7-17.39-11.84-24.83-25.41-19.75,4.1,10.81,6.23,12.49,25.41,19.75ZM209.74,1104.47c-17.52-1.13-32.22,16.81-32.28,39.15,4.4-7.64,7.81-15.72,12.99-21.96,5.43-6.55,12.56-11.34,19.29-17.19ZM637.93,717.03c-.34-1.13-.68-2.27-1.03-3.4-26.17,11.06-52.33,22.12-78.5,33.18.3.89.59,1.78.89,2.66,26.21-10.81,52.42-21.63,78.63-32.44ZM787.24,834.02c-3.29-9.25-6.16-17.35-9.04-25.44-.66.16-1.31.31-1.97.47-1.76,9.53-3.53,19.05-5.51,29.79,6.07-1.77,10.62-3.1,16.52-4.82ZM574.64,855.44c8.73-.61,16.84-10.19,23.19-27.36-8.12-1.22-18.87,11.47-23.19,27.36ZM67.61,784.54c-5.59-2.58-10.15-11.94-15.55-2-1.89,3.47-1.82,12.54-.15,13.48,9.85,5.56,10.77-5.92,15.7-11.48ZM280.92,1021.07c.53,1.63,1.06,3.26,1.59,4.89,14.46-4.73,28.92-9.46,43.38-14.18-.37-1.42-.74-2.84-1.12-4.26-14.62,4.52-29.24,9.04-43.86,13.56ZM312.09,955.79c1.01.12,2.01.24,3.02.36.64-4.6,2.77-9.78,1.56-13.65-1.5-4.79-5.78-8.48-8.85-12.64-.93.79-1.87,1.58-2.8,2.36,2.36,7.86,4.71,15.72,7.07,23.57ZM444,816.48c.44-1.2.88-2.41,1.33-3.61-13.17-4.74-26.34-9.48-39.51-14.22-.41,1.45-.83,2.91-1.24,4.36,13.14,4.49,26.28,8.98,39.42,13.47ZM90.3,889.75c-.31-1.13-.63-2.26-.94-3.4-13.99,4.94-27.97,9.88-41.96,14.82.29,1.03.57,2.05.86,3.08,14.02-4.83,28.03-9.67,42.05-14.5ZM305.28,756.75c3.08,9.78,9.16,9.15,16.29,6.68-3.83-12.6-6.98-13.79-16.29-6.68ZM383.74,1078.6c-12.47-.64-20.91,6.2-23.06,17.59,7.2-5.49,15.21-11.6,23.06-17.59ZM595.72,818.65c11.69,6.76,10.83-4.98,15.62-8.59-10.67-7.9-9.76,4.83-15.62,8.59Z"></path></g></svg>